<?xml version="1.0" encoding="UTF-8"?>
<svg version="1.1" xmlns="http://www.w3.org/2000/svg" width="1016" height="952">
<path d="M0 0 C38.55729822 -0.32054333 77.11439551 -0.56718419 115.67275687 -0.71491461 C120.22633879 -0.73242421 124.77991809 -0.75054475 129.33349609 -0.76904297 C130.24001988 -0.77271531 131.14654367 -0.77638766 132.08053787 -0.78017129 C146.75320561 -0.84106707 161.42510433 -0.95143684 176.09731607 -1.08013915 C191.15586161 -1.21112723 206.21400482 -1.28883637 221.27309668 -1.31723893 C230.56362852 -1.33643641 239.8519868 -1.39702772 249.14184935 -1.51083054 C255.51500777 -1.58491926 261.8870451 -1.60718415 268.26060276 -1.58901928 C271.93716499 -1.58006183 275.60993515 -1.59363522 279.28582001 -1.66887665 C302.49519309 -2.12085304 302.49519309 -2.12085304 307.86488724 3.03751755 C310.60068055 6.42045531 312.24959131 10.03525469 314 14 C315.2776936 15.80118029 316.59725204 17.57464362 317.984375 19.29296875 C318.60183594 20.09734375 319.21929687 20.90171875 319.85546875 21.73046875 C320.48066406 22.54128906 321.10585938 23.35210938 321.75 24.1875 C326.90306551 30.90888979 331.99687204 37.66626684 337 44.5 C341.92549154 51.22508218 346.93348707 57.88053292 352 64.5 C357.65353395 71.88641792 363.21470194 79.33194466 368.7109375 86.8359375 C373.07277294 92.7767179 377.52070271 98.64740917 382 104.5 C390.0413063 115.01139798 397.89060474 125.65631162 405.70898438 136.33398438 C413.05188811 146.35616884 420.48735999 156.29725718 428.03857422 166.16357422 C433.00664488 172.66581386 437.87579599 179.23453424 442.7109375 185.8359375 C447.07277032 191.77671433 451.52054548 197.6475326 456 203.5 C461.65290465 210.88559574 467.21433838 218.32967004 472.70874023 225.83374023 C477.08782606 231.79958611 481.56077261 237.68881759 486.0625 243.5625 C491.52195656 250.6889662 496.84714321 257.89191237 502.06884766 265.19384766 C506.90970043 271.93598658 511.93963711 278.52600271 516.98828125 285.11328125 C521.38945425 290.86347279 525.72207974 296.65762864 530 302.5 C539.77302497 315.83798353 549.82785519 328.96442489 560 342 C561.69087177 340.33664694 563.37764845 338.66943461 565.0625 337 C565.52849609 336.54238281 565.99449219 336.08476562 566.47460938 335.61328125 C569.88459265 332.22649514 573.05767923 328.68073442 576.20336914 325.04833984 C579.11687102 321.72665473 582.15298629 318.52332244 585.1875 315.3125 C586.51080806 313.9066183 587.83371972 312.50036339 589.15625 311.09375 C590.13078125 310.05734375 590.13078125 310.05734375 591.125 309 C593.82719241 306.11766143 596.51026048 303.21800706 599.1875 300.3125 C599.9141687 299.5239563 599.9141687 299.5239563 600.65551758 298.71948242 C602.10408905 297.14669916 603.55206724 295.57337127 605 294 C611.92546877 286.47939192 618.87671891 278.98412914 625.85888672 271.51611328 C630.32284221 266.73691018 634.7442573 261.92098907 639.15625 257.09375 C643.00997055 252.88969122 646.91281644 248.73143815 650.80859375 244.56640625 C654.39387131 240.7300808 657.95752254 236.8758871 661.5 233 C666.23331851 227.82119269 671.01594724 222.69029399 675.80859375 217.56640625 C679.39387131 213.7300808 682.95752254 209.8758871 686.5 206 C690.63791184 201.47263764 694.81024595 196.97940488 699 192.5 C704.13247534 187.01193233 709.22974271 181.49404776 714.30078125 175.94921875 C722.10293432 167.424435 729.966465 158.95777992 737.85864258 150.51635742 C742.32269837 145.73709041 746.74417969 140.92107399 751.15625 136.09375 C755.00997055 131.88969122 758.91281644 127.73143815 762.80859375 123.56640625 C766.39387131 119.7300808 769.95752254 115.8758871 773.5 112 C778.23331851 106.82119269 783.01594724 101.69029399 787.80859375 96.56640625 C791.39387131 92.7300808 794.95752254 88.8758871 798.5 85 C803.23331851 79.82119269 808.01594724 74.69029399 812.80859375 69.56640625 C816.39387131 65.7300808 819.95752254 61.8758871 823.5 58 C828.23331851 52.82119269 833.01594724 47.69029399 837.80859375 42.56640625 C842.28759441 37.77377754 846.72350492 32.94418783 851.1484375 28.1015625 C854.99598733 23.90398681 858.8923369 19.75162145 862.79101562 15.6015625 C863.33693359 15.01890625 863.88285156 14.43625 864.4453125 13.8359375 C865.26995247 12.99213531 865.26995247 12.99213531 866.11125183 12.13128662 C868.07723387 10.02887386 868.07723387 10.02887386 869.59284973 7.472229 C872.13730708 3.81414651 874.56366124 0.67123862 879.02635956 -0.55828476 C885.17502919 -1.43131918 891.37701176 -1.14611981 897.56640625 -0.9765625 C899.57132935 -0.95788978 901.57629836 -0.94366531 903.58128357 -0.9336853 C908.83501211 -0.89567029 914.0859351 -0.79759327 919.33856201 -0.68664551 C924.70774384 -0.5839804 930.07738324 -0.53859858 935.44726562 -0.48828125 C945.96607026 -0.38133003 956.48280102 -0.210869 967 0 C965.53780707 3.04741668 964.03799563 5.24122624 961.69140625 7.6875 C961.03237305 8.38004883 960.37333984 9.07259766 959.69433594 9.78613281 C958.63907715 10.88199707 958.63907715 10.88199707 957.5625 12 C956.09965874 13.5358855 954.63742103 15.07234606 953.17578125 16.609375 C952.45986816 17.36025391 951.74395508 18.11113281 951.00634766 18.88476562 C947.49695379 22.5846182 944.06704244 26.35502803 940.62890625 30.12109375 C932.85874131 38.63017482 925.01084815 47.06648578 917.14135742 55.48364258 C912.67730163 60.26290959 908.25582031 65.07892601 903.84375 69.90625 C899.99002945 74.11030878 896.08718356 78.26856185 892.19140625 82.43359375 C888.60612869 86.2699192 885.04247746 90.1241129 881.5 94 C876.76668149 99.17880731 871.98405276 104.30970601 867.19140625 109.43359375 C863.60612869 113.2699192 860.04247746 117.1241129 856.5 121 C851.76668149 126.17880731 846.98405276 131.30970601 842.19140625 136.43359375 C838.60612869 140.2699192 835.04247746 144.1241129 831.5 148 C827.36208816 152.52736236 823.18975405 157.02059512 819 161.5 C813.86752466 166.98806767 808.77025729 172.50595224 803.69921875 178.05078125 C795.89706568 186.575565 788.033535 195.04222008 780.14135742 203.48364258 C775.67730163 208.26290959 771.25582031 213.07892601 766.84375 217.90625 C762.99002945 222.11030878 759.08718356 226.26856185 755.19140625 230.43359375 C751.60612869 234.2699192 748.04247746 238.1241129 744.5 242 C739.76668149 247.17880731 734.98405276 252.30970601 730.19140625 257.43359375 C726.60612869 261.2699192 723.04247746 265.1241129 719.5 269 C715.36208816 273.52736236 711.18975405 278.02059512 707 282.5 C701.86752466 287.98806767 696.77025729 293.50595224 691.69921875 299.05078125 C683.89706568 307.575565 676.033535 316.04222008 668.14135742 324.48364258 C663.67730163 329.26290959 659.25582031 334.07892601 654.84375 338.90625 C650.99002945 343.11030878 647.08718356 347.26856185 643.19140625 351.43359375 C639.60612869 355.2699192 636.04247746 359.1241129 632.5 363 C628.36207837 367.52737308 624.18895929 372.01984175 620 376.5 C618.82027397 377.76558909 617.64058611 379.03121375 616.4609375 380.296875 C614.20663134 382.7140974 611.94020806 385.11896965 609.6640625 387.515625 C608.65086088 388.5935801 607.63783055 389.67169624 606.625 390.75 C605.73039063 391.69359375 604.83578125 392.6371875 603.9140625 393.609375 C601.68749695 395.87989825 601.68749695 395.87989825 602 399 C603.26257373 401.0635455 603.26257373 401.0635455 605.0078125 403.21875 C605.6575 404.05857422 606.3071875 404.89839844 606.9765625 405.76367188 C607.68554688 406.66666016 608.39453125 407.56964844 609.125 408.5 C610.60808428 410.41565053 612.08983064 412.33233752 613.5703125 414.25 C614.31829102 415.21679688 615.06626953 416.18359375 615.83691406 417.1796875 C618.95263214 421.24207748 621.98082518 425.36563448 625 429.5 C629.92459678 436.22572897 634.93368108 442.88041444 640 449.5 C648.0413063 460.01139798 655.89060474 470.65631162 663.70898438 481.33398438 C671.05188811 491.35616884 678.48735999 501.29725718 686.03857422 511.16357422 C691.00664488 517.66581386 695.87579599 524.23453424 700.7109375 530.8359375 C705.07277032 536.77671433 709.52054548 542.6475326 714 548.5 C719.65067561 555.88268346 725.21023936 563.32359573 730.70214844 570.82495117 C735.14481102 576.87779513 739.68378637 582.85247959 744.25 588.8125 C748.99569878 595.00877085 753.65458099 601.24064107 758.14257812 607.62548828 C762.54319952 613.84399405 767.20347725 619.86366787 771.8359375 625.91015625 C776.28724225 631.72852838 780.6724824 637.58907773 785 643.5 C789.92549154 650.22508218 794.93348707 656.88053292 800 663.5 C805.65290465 670.88559574 811.21433838 678.32967004 816.70874023 685.83374023 C821.08782606 691.79958611 825.56077261 697.68881759 830.0625 703.5625 C835.52195656 710.6889662 840.84714321 717.89191237 846.06884766 725.19384766 C850.90970043 731.93598658 855.93963711 738.52600271 860.98828125 745.11328125 C865.3894518 750.8634696 869.72220925 756.65753654 874 762.5 C878.92552389 769.22505881 883.93348655 775.88053224 889 782.5 C894.65290465 789.88559574 900.21433838 797.32967004 905.70874023 804.83374023 C910.08782606 810.79958611 914.56077261 816.68881759 919.0625 822.5625 C924.52195656 829.6889662 929.84714321 836.89191237 935.06884766 844.19384766 C939.90970043 850.93598658 944.93963711 857.52600271 949.98828125 864.11328125 C954.3894518 869.8634696 958.72220925 875.65753654 963 881.5 C967.92552691 888.22506293 972.93366451 894.88039279 978 901.5 C984.26262404 909.68634824 990.42655492 917.9377908 996.515625 926.25390625 C998.98731867 929.62948103 1001.47985062 932.98855738 1003.984375 936.33984375 C1004.63519043 937.21366699 1005.28600586 938.08749023 1005.95654297 938.98779297 C1007.21232473 940.67314223 1008.47163349 942.3558706 1009.73486328 944.03564453 C1010.29415527 944.7882959 1010.85344727 945.54094727 1011.4296875 946.31640625 C1012.17581299 947.31329468 1012.17581299 947.31329468 1012.93701172 948.33032227 C1014 950 1014 950 1014 952 C975.6383738 952.41237974 937.27708256 952.72936335 898.91368672 952.91917593 C894.38027971 952.94168751 889.84687706 952.96498542 885.31347656 952.98876953 C883.95975067 952.99585191 883.95975067 952.99585191 882.57867678 953.00307737 C867.98280442 953.08131305 853.38821364 953.22318246 838.79310052 953.38875033 C823.80688849 953.55733157 808.8213456 953.65711003 793.83422434 953.69359291 C784.5922075 953.71824224 775.35381293 953.79595046 766.11291195 953.9424964 C759.76806717 954.03796388 753.42508267 954.06633439 747.07957254 954.04302479 C743.4217775 954.03153713 739.77028644 954.04857334 736.11362648 954.14569855 C714.8215268 954.68385307 714.8215268 954.68385307 708.463696 950.21875715 C704.15385244 946.03679912 701.0188551 941.32409889 698.15185666 936.07349277 C696.70557526 933.46999692 694.97506909 931.15958832 693.1328125 928.82421875 C692.12803129 927.44689806 691.12536256 926.06803334 690.125 924.6875 C685.08489191 917.78742103 679.94767498 910.96959408 674.75 904.1875 C670.00419747 897.99131125 665.34541622 891.75935496 660.85742188 885.37451172 C656.45680048 879.15600595 651.79652275 873.13633213 647.1640625 867.08984375 C642.71275775 861.27147162 638.3275176 855.41092227 634 849.5 C629.07450846 842.77491782 624.06651293 836.11946708 619 829.5 C613.34709535 822.11440426 607.78566162 814.67032996 602.29125977 807.16625977 C597.91217394 801.20041389 593.43922739 795.31118241 588.9375 789.4375 C583.47804344 782.3110338 578.15285679 775.10808763 572.93115234 767.80615234 C568.09029957 761.06401342 563.06036289 754.47399729 558.01171875 747.88671875 C553.6105482 742.1365304 549.27779075 736.34246346 545 730.5 C540.07447611 723.77494119 535.06651345 717.11946776 530 710.5 C524.34932439 703.11731654 518.78976064 695.67640427 513.29785156 688.17504883 C508.85518898 682.12220487 504.31621363 676.14752041 499.75 670.1875 C495.00430122 663.99122915 490.34541901 657.75935893 485.85742188 651.37451172 C481.45680048 645.15600595 476.79652275 639.13633213 472.1640625 633.08984375 C467.71275573 627.27146899 463.32761983 621.41084989 459 615.5 C453.86210998 608.48723342 448.64537914 601.53877918 443.375 594.625 C442.36179687 593.2956543 442.36179687 593.2956543 441.328125 591.93945312 C438.26055847 587.92491514 435.18203402 583.92504704 432 580 C430.80903249 581.16312671 429.62247296 582.33076672 428.4375 583.5 C427.77621094 584.1496875 427.11492187 584.799375 426.43359375 585.46875 C423.80682737 588.20092434 421.33421438 591.03827025 418.84936523 593.89892578 C415.91369235 597.23416022 412.86409166 600.45860736 409.8125 603.6875 C408.48919194 605.0933817 407.16628028 606.49963661 405.84375 607.90625 C405.1940625 608.5971875 404.544375 609.288125 403.875 610 C401.17280759 612.88233857 398.48973952 615.78199294 395.8125 618.6875 C395.0858313 619.4760437 395.0858313 619.4760437 394.34448242 620.28051758 C392.89591095 621.85330084 391.44793276 623.42662873 390 625 C383.07453123 632.52060808 376.12328109 640.01587086 369.14111328 647.48388672 C364.67715779 652.26308982 360.2557427 657.07901093 355.84375 661.90625 C351.99002945 666.11030878 348.08718356 670.26856185 344.19140625 674.43359375 C340.60612869 678.2699192 337.04247746 682.1241129 333.5 686 C328.76668149 691.17880731 323.98405276 696.30970601 319.19140625 701.43359375 C315.60612869 705.2699192 312.04247746 709.1241129 308.5 713 C304.36208816 717.52736236 300.18975405 722.02059512 296 726.5 C290.86752466 731.98806767 285.77025729 737.50595224 280.69921875 743.05078125 C272.89706568 751.575565 265.033535 760.04222008 257.14135742 768.48364258 C252.67730163 773.26290959 248.25582031 778.07892601 243.84375 782.90625 C239.99002945 787.11030878 236.08718356 791.26856185 232.19140625 795.43359375 C228.60612869 799.2699192 225.04247746 803.1241129 221.5 807 C216.76668149 812.17880731 211.98405276 817.30970601 207.19140625 822.43359375 C203.60612869 826.2699192 200.04247746 830.1241129 196.5 834 C191.76668149 839.17880731 186.98405276 844.30970601 182.19140625 849.43359375 C178.60612869 853.2699192 175.04247746 857.1241129 171.5 861 C166.76668149 866.17880731 161.98405276 871.30970601 157.19140625 876.43359375 C153.60612869 880.2699192 150.04247746 884.1241129 146.5 888 C142.36208816 892.52736236 138.18975405 897.02059512 134 901.5 C128.86752466 906.98806767 123.77025729 912.50595224 118.69921875 918.05078125 C111.31982136 926.11365394 103.89072142 934.13035894 96.4375 942.125 C95.84155029 942.76477783 95.24560059 943.40455566 94.6315918 944.0637207 C93.79108276 944.96417114 93.79108276 944.96417114 92.93359375 945.8828125 C92.43915771 946.41277832 91.94472168 946.94274414 91.43530273 947.48876953 C90.96165283 947.98747559 90.48800293 948.48618164 90 949 C89.55252505 949.51872838 89.10505011 950.03745676 88.64401531 950.57190418 C85.79473896 953.04696607 82.08787532 952.3878248 78.48950195 952.34057617 C77.18674316 952.34123329 77.18674316 952.34123329 75.85766602 952.34190369 C72.98430981 952.33981212 70.11153564 952.31646374 67.23828125 952.29296875 C65.24717019 952.28737411 63.25605501 952.28310339 61.26493835 952.28010559 C56.0221722 952.26864648 50.77965503 952.23917005 45.5369873 952.20599365 C40.18810393 952.17531579 34.83918035 952.16160514 29.49023438 952.14648438 C18.99338013 952.11430144 8.49671077 952.06309214 -2 952 C-0.34421023 947.46305069 1.67159557 945.03852064 5.1875 941.6875 C9.07680546 937.96138218 12.67750862 934.13470899 16.19897461 930.05932617 C19.11023232 926.73053956 22.15036226 923.52609893 25.1875 920.3125 C26.51080806 918.9066183 27.83371972 917.50036339 29.15625 916.09375 C29.8059375 915.4028125 30.455625 914.711875 31.125 914 C33.82719241 911.11766143 36.51026048 908.21800706 39.1875 905.3125 C39.6719458 904.7868042 40.1563916 904.2611084 40.65551758 903.71948242 C42.10408905 902.14669916 43.55206724 900.57337127 45 899 C51.92546877 891.47939192 58.87671891 883.98412914 65.85888672 876.51611328 C70.32284221 871.73691018 74.7442573 866.92098907 79.15625 862.09375 C83.00997055 857.88969122 86.91281644 853.73143815 90.80859375 849.56640625 C94.39387131 845.7300808 97.95752254 841.8758871 101.5 838 C106.23331851 832.82119269 111.01594724 827.69029399 115.80859375 822.56640625 C119.39387131 818.7300808 122.95752254 814.8758871 126.5 811 C131.23331851 805.82119269 136.01594724 800.69029399 140.80859375 795.56640625 C144.39387131 791.7300808 147.95752254 787.8758871 151.5 784 C156.23331851 778.82119269 161.01594724 773.69029399 165.80859375 768.56640625 C169.39387131 764.7300808 172.95752254 760.8758871 176.5 757 C181.23331851 751.82119269 186.01594724 746.69029399 190.80859375 741.56640625 C194.39387131 737.7300808 197.95752254 733.8758871 201.5 730 C206.23331851 724.82119269 211.01594724 719.69029399 215.80859375 714.56640625 C219.39387131 710.7300808 222.95752254 706.8758871 226.5 703 C231.23331851 697.82119269 236.01594724 692.69029399 240.80859375 687.56640625 C244.39387131 683.7300808 247.95752254 679.8758871 251.5 676 C256.23331851 670.82119269 261.01594724 665.69029399 265.80859375 660.56640625 C269.39387131 656.7300808 272.95752254 652.8758871 276.5 649 C281.23331851 643.82119269 286.01594724 638.69029399 290.80859375 633.56640625 C294.39387131 629.7300808 297.95752254 625.8758871 301.5 622 C306.23331851 616.82119269 311.01594724 611.69029399 315.80859375 606.56640625 C319.39387131 602.7300808 322.95752254 598.8758871 326.5 595 C331.23331851 589.82119269 336.01594724 584.69029399 340.80859375 579.56640625 C344.39387131 575.7300808 347.95752254 571.8758871 351.5 568 C355.63791283 563.47263655 359.81032349 558.97947851 364 554.5 C369.20066669 548.93725263 374.38748902 543.36347648 379.5078125 537.7265625 C381.14863098 535.93143507 382.80979688 534.15466345 384.4921875 532.3984375 C385.23726563 531.60695313 385.98234375 530.81546875 386.75 530 C387.40484375 529.319375 388.0596875 528.63875 388.734375 527.9375 C390.21629101 526.12297973 390.21629101 526.12297973 389.77539062 524.15087891 C388.84192591 521.56151361 387.55604597 519.81692759 385.859375 517.6484375 C385.20775391 516.80667969 384.55613281 515.96492187 383.88476562 515.09765625 C383.18029297 514.19917969 382.47582031 513.30070313 381.75 512.375 C380.27418008 510.46758474 378.80024786 508.55870755 377.328125 506.6484375 C376.22500977 505.21709473 376.22500977 505.21709473 375.09960938 503.75683594 C372.15604488 499.89186731 369.31968867 495.95578767 366.5 492 C361.14917929 484.51485848 355.60852831 477.18922265 350.01171875 469.88671875 C345.6105482 464.1365304 341.27779075 458.34246346 337 452.5 C332.07447611 445.77494119 327.06651345 439.11946776 322 432.5 C316.34932439 425.11731654 310.78976064 417.67640427 305.29785156 410.17504883 C300.85518898 404.12220487 296.31621363 398.14752041 291.75 392.1875 C287.00430122 385.99122915 282.34541901 379.75935893 277.85742188 373.37451172 C273.45680048 367.15600595 268.79652275 361.13633213 264.1640625 355.08984375 C259.71275775 349.27147162 255.3275176 343.41092227 251 337.5 C246.07450846 330.77491782 241.06651293 324.11946708 236 317.5 C230.34932439 310.11731654 224.78976064 302.67640427 219.29785156 295.17504883 C214.85518898 289.12220487 210.31621363 283.14752041 205.75 277.1875 C201.00430122 270.99122915 196.34541901 264.75935893 191.85742188 258.37451172 C187.45680048 252.15600595 182.79652275 246.13633213 178.1640625 240.08984375 C173.71275775 234.27147162 169.3275176 228.41092227 165 222.5 C160.07450729 215.77491623 155.0664474 209.11951866 150 202.5 C144.25628366 194.9943524 138.59794097 187.43312357 133.0078125 179.8125 C129.36846391 174.85201802 125.70023321 169.91521683 122 165 C117.70917798 159.30027261 113.46976112 153.56499947 109.25 147.8125 C103.57681778 140.08436511 97.78860854 132.44997046 91.96191406 124.8371582 C86.99377647 118.33460185 82.12437737 111.76570244 77.2890625 105.1640625 C72.92722706 99.2232821 68.47929729 93.35259083 64 87.5 C55.9586937 76.98860202 48.10939526 66.34368838 40.29101562 55.66601562 C33.56526327 46.48616891 26.78156942 37.35736432 19.875 28.3125 C19.20871582 27.43956299 18.54243164 26.56662598 17.85595703 25.66723633 C15.28052942 22.29414068 12.70487575 18.92122375 10.12597656 15.55078125 C8.41257164 13.3082502 6.70546021 11.06107576 5 8.8125 C4.48937012 8.14710205 3.97874023 7.4817041 3.45263672 6.79614258 C0 2.22840243 0 2.22840243 0 0 Z M133 67 C133.95913441 68.44530213 134.91914082 69.89002561 135.8795166 71.33450317 C136.41402687 72.13909533 136.94853714 72.94368748 137.49924469 73.77266121 C139.12167212 76.18057909 140.81884904 78.50699186 142.59375 80.8046875 C143.2242627 81.62533691 143.85477539 82.44598633 144.50439453 83.29150391 C145.16294434 84.14405762 145.82149414 84.99661133 146.5 85.875 C151.77130028 92.74653815 156.99793583 99.64507869 162.125 106.625 C162.69557129 107.40166016 163.26614258 108.17832031 163.85400391 108.97851562 C166.14116059 112.09542244 168.4250183 115.21473928 170.70898438 118.33398438 C178.05188811 128.35616884 185.48735999 138.29725718 193.03857422 148.16357422 C198.00664488 154.66581386 202.87579599 161.23453424 207.7109375 167.8359375 C212.07277032 173.77671433 216.52054548 179.6475326 221 185.5 C226.65290465 192.88559574 232.21433838 200.32967004 237.70874023 207.83374023 C242.08782606 213.79958611 246.56077261 219.68881759 251.0625 225.5625 C256.52195656 232.6889662 261.84714321 239.89191237 267.06884766 247.19384766 C271.90970043 253.93598658 276.93963711 260.52600271 281.98828125 267.11328125 C286.3894518 272.8634696 290.72220925 278.65753654 295 284.5 C299.92552389 291.22505881 304.93348655 297.88053224 310 304.5 C315.65290465 311.88559574 321.21433838 319.32967004 326.70874023 326.83374023 C331.08782606 332.79958611 335.56077261 338.68881759 340.0625 344.5625 C345.52195656 351.6889662 350.84714321 358.89191237 356.06884766 366.19384766 C360.90970043 372.93598658 365.93963711 379.52600271 370.98828125 386.11328125 C375.3894518 391.8634696 379.72220925 397.65753654 384 403.5 C388.92552389 410.22505881 393.93348655 416.88053224 399 423.5 C404.65290465 430.88559574 410.21433838 438.32967004 415.70874023 445.83374023 C420.08782606 451.79958611 424.56077261 457.68881759 429.0625 463.5625 C434.52195656 470.6889662 439.84714321 477.89191237 445.06884766 485.19384766 C449.90970043 491.93598658 454.93963711 498.52600271 459.98828125 505.11328125 C464.3894518 510.8634696 468.72220925 516.65753654 473 522.5 C477.92552389 529.22505881 482.93348655 535.88053224 488 542.5 C493.65290465 549.88559574 499.21433838 557.32967004 504.70874023 564.83374023 C509.08782606 570.79958611 513.56077261 576.68881759 518.0625 582.5625 C523.52195656 589.6889662 528.84714321 596.89191237 534.06884766 604.19384766 C538.90970043 610.93598658 543.93963711 617.52600271 548.98828125 624.11328125 C553.3894518 629.8634696 557.72220925 635.65753654 562 641.5 C566.92552389 648.22505881 571.93348655 654.88053224 577 661.5 C582.65290465 668.88559574 588.21433838 676.32967004 593.70874023 683.83374023 C598.08782606 689.79958611 602.56077261 695.68881759 607.0625 701.5625 C612.52195656 708.6889662 617.84714321 715.89191237 623.06884766 723.19384766 C627.90970043 729.93598658 632.93963711 736.52600271 637.98828125 743.11328125 C642.3894518 748.8634696 646.72220925 754.65753654 651 760.5 C655.92552389 767.22505881 660.93348655 773.88053224 666 780.5 C671.65290465 787.88559574 677.21433838 795.32967004 682.70874023 802.83374023 C687.08782606 808.79958611 691.56077261 814.68881759 696.0625 820.5625 C701.5197197 827.68604632 706.84336058 834.88561919 712.06225586 842.18505859 C716.90933757 848.93680394 721.93621889 855.54506473 727.00585938 862.13085938 C727.62525391 862.93716797 728.24464844 863.74347656 728.8828125 864.57421875 C729.52213211 865.36007355 730.16145172 866.14592834 730.82014465 866.95559692 C732.5193979 869.32878733 733.5696045 871.15332042 734.71696472 873.75961304 C737.01265129 878.4328116 739.52911737 882.18834443 744 885 C753.19925032 887.62931974 763.29207765 886.79581159 772.77961898 886.52090907 C776.58952071 886.42653419 780.39963531 886.41828245 784.21052551 886.40052795 C791.41188163 886.35407586 798.60978379 886.2312398 805.80962497 886.08028561 C814.0123775 885.91207271 822.2153034 885.83001685 830.41935384 885.75485408 C847.28158484 885.59845494 864.1403504 885.33497538 881 885 C880.3750766 883.89493103 879.7501532 882.78986206 879.10629272 881.65130615 C878.75477331 881.02970486 878.4032539 880.40810356 878.04108238 879.76766586 C876.71255858 877.51194988 875.20555774 875.45824267 873.6015625 873.390625 C872.96476563 872.56369141 872.32796875 871.73675781 871.671875 870.88476562 C870.99640625 870.01529297 870.3209375 869.14582031 869.625 868.25 C864.34142544 861.38615632 859.113066 854.49184799 854 847.5 C849.07491153 840.77462912 844.06650576 834.11945772 839 827.5 C833.34646605 820.11358208 827.78529806 812.66805534 822.2890625 805.1640625 C817.92722706 799.2232821 813.47929729 793.35259083 809 787.5 C800.9586937 776.98860202 793.10939526 766.34368838 785.29101562 755.66601562 C777.94811189 745.64383116 770.51264001 735.70274282 762.96142578 725.83642578 C757.99335512 719.33418614 753.12420401 712.76546576 748.2890625 706.1640625 C743.92722837 700.22328388 739.47937591 694.35252911 735 688.5 C729.32769077 681.08717638 723.73852758 673.62071943 718.21875 666.09375 C714.01673906 660.36719994 709.76959632 654.67631017 705.5 649 C700.64790452 642.54927333 695.83588485 636.07166116 691.0625 629.5625 C685.4523016 621.91685547 679.7247857 614.36661918 673.96118164 606.83618164 C668.99326998 600.33396502 664.12413668 593.76537382 659.2890625 587.1640625 C654.92722837 581.22328388 650.47937591 575.35252911 646 569.5 C640.32769077 562.08717638 634.73852758 554.62071943 629.21875 547.09375 C625.01673906 541.36719994 620.76959632 535.67631017 616.5 530 C611.64790452 523.54927333 606.83588485 517.07166116 602.0625 510.5625 C596.4523016 502.91685547 590.7247857 495.36661918 584.96118164 487.83618164 C579.99326998 481.33396502 575.12413668 474.76537382 570.2890625 468.1640625 C565.92722837 462.22328388 561.47937591 456.35252911 557 450.5 C551.32769077 443.08717638 545.73852758 435.62071943 540.21875 428.09375 C536.01673906 422.36719994 531.76959632 416.67631017 527.5 411 C522.64790452 404.54927333 517.83588485 398.07166116 513.0625 391.5625 C507.4523016 383.91685547 501.7247857 376.36661918 495.96118164 368.83618164 C490.99326998 362.33396502 486.12413668 355.76537382 481.2890625 349.1640625 C476.92722837 343.22328388 472.47937591 337.35252911 468 331.5 C462.32769077 324.08717638 456.73852758 316.62071943 451.21875 309.09375 C447.01673906 303.36719994 442.76959632 297.67631017 438.5 292 C433.64790452 285.54927333 428.83588485 279.07166116 424.0625 272.5625 C418.4523016 264.91685547 412.7247857 257.36661918 406.96118164 249.83618164 C401.99326998 243.33396502 397.12413668 236.76537382 392.2890625 230.1640625 C387.92722837 224.22328388 383.47937591 218.35252911 379 212.5 C373.32769077 205.08717638 367.73852758 197.62071943 362.21875 190.09375 C358.01673906 184.36719994 353.76959632 178.67631017 349.5 173 C344.64790452 166.54927333 339.83588485 160.07166116 335.0625 153.5625 C329.4523016 145.91685547 323.7247857 138.36661918 317.96118164 130.83618164 C313.57945099 125.10118396 309.26471677 119.32244018 305 113.5 C299.43213924 105.90014885 293.76133953 98.38450244 288.03125 90.90625 C287.42023438 90.10832031 286.80921875 89.31039062 286.1796875 88.48828125 C285.22142563 87.3102166 285.22142563 87.3102166 284.24380493 86.10835266 C282.49299786 83.68295206 281.31986342 81.67420855 280.06161499 79.01896667 C277.48977151 74.10807401 274.72168389 70.04324346 270 67 C260.78643599 64.24071383 250.64677022 65.08265397 241.11898708 65.37769699 C237.3118191 65.47845769 233.5044015 65.4871724 229.69610596 65.50610352 C222.50163363 65.55562635 215.31110122 65.68661108 208.11835599 65.84769535 C199.92290453 66.02720816 191.72725389 66.11466931 183.53032255 66.19482231 C166.68458353 66.36158802 149.84279618 66.64257668 133 67 Z " fill="#1D1E1B" transform="translate(2,0)"/>
</svg>
